# xmcd
#
# Track frame offsets:
#	150
#	14072
#	30033
#	43242
#	59321
#	73619
#	87972
#	100766
#	115982
#	129820
#	145732
#	157976
#	173345
#	187209
#	203537
#	217638
#	231960
#	246027
#	262299
#	274749
#	289549
#
# Disc length: 4037 seconds
#
# Revision: 1
# Processed by: cddbd v1.5.2PL0 Copyright (c) Steve Scherf et al.
# Submitted via: dBpowerAMP V4.0
#
DISCID=200fc315
DTITLE=Various Artist - Hott Country # 271 Canada
DYEAR=2018
DGENRE=Country
TTITLE0=Jake Owen - Down To The Honkeytonk
TTITLE1=Keith Urban - Never Comin Down
TTITLE2=Chad Brownlee - Dear Drunk Me
TTITLE3=Cody Johnson - On My Way To You
TTITLE4=Danielle Bradbery ft. Thomas Rhett - Goodbye Summer
TTITLE5=Washboard Union, The - Feel Like That
TTITLE6=Locash - Feels Like A Party
TTITLE7=Tim Hicks ft. Lindsay Ell - The Worst Kind
TTITLE8=Chase Rice - Eyes On You
TTITLE9=Reklaws, The - Feels Like That
TTITLE10=Dylan Schneider - How Does It Sound
TTITLE11=Runaway June - Buy My Own Drinks
TTITLE12=Lindsay Ell - Champagne
TTITLE13=Ryan Kinder - Stay
TTITLE14=Shawn Austin - You Belong
TTITLE15=Alee - Don't Make Me Miss You
TTITLE16=Kadooh - 24 Reasons
TTITLE17=Casey Donahew - That Got The Girl
TTITLE18=Paul Brandt ft. Lindsay Ell - Bittersweet
TTITLE19=Sam Shupak - Something Blue
TTITLE20=Terri Clark - Young As We Are Tonight
EXTD=
EXTT0=
EXTT1=
EXTT2=
EXTT3=
EXTT4=
EXTT5=
EXTT6=
EXTT7=
EXTT8=
EXTT9=
EXTT10=
EXTT11=
EXTT12=
EXTT13=
EXTT14=
EXTT15=
EXTT16=
EXTT17=
EXTT18=
EXTT19=
EXTT20=
PLAYORDER=
